<?xml version="1.0" encoding="UTF-8" standalone="no"?>
<svg
   width="3.4000001in"
   height="2.4000001in"
   viewBox="0 0 244.8 172.8"
   version="1.1"
   id="svg53"
   sodipodi:docname="labeled-xt.svg"
   inkscape:version="1.4 (e7c3feb1, 2024-10-09)"
   xmlns:inkscape="http://www.inkscape.org/namespaces/inkscape"
   xmlns:sodipodi="http://sodipodi.sourceforge.net/DTD/sodipodi-0.dtd"
   xmlns:xlink="http://www.w3.org/1999/xlink"
   xmlns="http://www.w3.org/2000/svg"
   xmlns:svg="http://www.w3.org/2000/svg"
   xmlns:rdf="http://www.w3.org/1999/02/22-rdf-syntax-ns#"
   xmlns:cc="http://creativecommons.org/ns#"
   xmlns:dc="http://purl.org/dc/elements/1.1/">
  <sodipodi:namedview
     id="namedview53"
     pagecolor="#ffffff"
     bordercolor="#000000"
     borderopacity="0.25"
     inkscape:showpageshadow="2"
     inkscape:pageopacity="0.0"
     inkscape:pagecheckerboard="0"
     inkscape:deskcolor="#d1d1d1"
     inkscape:document-units="pt"
     showgrid="false"
     inkscape:zoom="2.1295592"
     inkscape:cx="129.3695"
     inkscape:cy="128.19555"
     inkscape:window-width="1472"
     inkscape:window-height="857"
     inkscape:window-x="0"
     inkscape:window-y="38"
     inkscape:window-maximized="1"
     inkscape:current-layer="svg53" />
  <metadata
     id="metadata1">
    <rdf:RDF>
      <cc:Work>
        <dc:type
           rdf:resource="http://purl.org/dc/dcmitype/StillImage" />
        <dc:date>2025-08-07T07:39:53.760852</dc:date>
        <dc:format>image/svg+xml</dc:format>
        <dc:creator>
          <cc:Agent>
            <dc:title>Matplotlib v3.10.5, https://matplotlib.org/</dc:title>
          </cc:Agent>
        </dc:creator>
      </cc:Work>
    </rdf:RDF>
  </metadata>
  <defs
     id="defs1">
    <marker
       style="overflow:visible"
       id="marker55"
       refX="0"
       refY="0"
       orient="auto"
       inkscape:stockid="Stop"
       markerWidth="1"
       markerHeight="1"
       viewBox="0 0 1 1"
       inkscape:isstock="true"
       inkscape:collect="always"
       preserveAspectRatio="xMidYMid">
      <path
         style="fill:none;stroke:context-stroke;stroke-width:1"
         d="M 0,4 V -4"
         id="path55" />
    </marker>
    <marker
       style="overflow:visible"
       id="Stop"
       refX="0"
       refY="0"
       orient="auto"
       inkscape:stockid="Stop"
       markerWidth="1"
       markerHeight="1"
       viewBox="0 0 1 1"
       inkscape:isstock="true"
       inkscape:collect="always"
       preserveAspectRatio="xMidYMid">
      <path
         style="fill:none;stroke:context-stroke;stroke-width:1"
         d="M 0,4 V -4"
         id="path23" />
    </marker>
    <style
       type="text/css"
       id="style1">*{stroke-linejoin: round; stroke-linecap: butt}</style>
    <clipPath
       clipPathUnits="userSpaceOnUse"
       id="clipPath57">
      <rect
         style="fill:#000000;fill-opacity:1;stroke:none;stroke-width:1.41732;stroke-dasharray:none;stroke-dashoffset:0;stroke-opacity:1"
         id="rect58"
         width="212.3679"
         height="136.64799"
         x="-2.4652998"
         y="10.213381" />
    </clipPath>
  </defs>
  <g
     id="figure_1"
     transform="translate(23.244248,7.7480825)"
     clip-path="url(#clipPath57)">
    <g
       id="patch_1">
      <path
         d="M 0,144 H 216 V 0 H 0 Z"
         style="fill:#ffffff"
         id="path1" />
    </g>
    <g
       id="axes_1">
      <g
         id="patch_2">
        <path
           d="M 27,128.16 H 194.4 V 17.28 H 27 Z"
           style="fill:#ffffff"
           id="path2" />
      </g>
      <g
         id="matplotlib.axis_1">
        <g
           id="xtick_1">
          <g
             id="line2d_1">
            <defs
               id="defs2">
              <path
                 id="m60946d14d2"
                 d="M 0,0 V 3.5"
                 style="stroke:#000000;stroke-width:0.8" />
            </defs>
            <g
               id="g2">
              <use
                 xlink:href="#m60946d14d2"
                 x="34.609093"
                 y="128.16"
                 style="stroke:#000000;stroke-width:0.8"
                 id="use2" />
            </g>
          </g>
          <g
             id="text_1">
            <!-- 0.0 -->
            <g
               transform="matrix(0.1,0,0,-0.1,26.657528,142.75844)"
               id="g5">
              <defs
                 id="defs3">
                <path
                   id="DejaVuSans-30"
                   d="m 2034,4250 q -487,0 -733,-480 -245,-479 -245,-1442 0,-959 245,-1439 246,-480 733,-480 491,0 736,480 246,480 246,1439 0,963 -246,1442 -245,480 -736,480 z m 0,500 q 785,0 1199,-621 414,-620 414,-1801 0,-1178 -414,-1799 -414,-620 -1199,-620 -784,0 -1198,620 -414,621 -414,1799 0,1181 414,1801 414,621 1198,621 z"
                   transform="scale(0.015625)" />
                <path
                   id="DejaVuSans-2e"
                   d="m 684,794 h 660 V 0 H 684 Z"
                   transform="scale(0.015625)" />
              </defs>
              <use
                 xlink:href="#DejaVuSans-30"
                 id="use3" />
              <use
                 xlink:href="#DejaVuSans-2e"
                 transform="translate(63.623047)"
                 id="use4" />
              <use
                 xlink:href="#DejaVuSans-30"
                 transform="translate(95.410156)"
                 id="use5" />
            </g>
          </g>
        </g>
        <g
           id="xtick_2">
          <g
             id="line2d_2">
            <g
               id="g6">
              <use
                 xlink:href="#m60946d14d2"
                 x="72.654549"
                 y="128.16"
                 style="stroke:#000000;stroke-width:0.8"
                 id="use6" />
            </g>
          </g>
          <g
             id="text_2">
            <!-- 2.5 -->
            <g
               transform="matrix(0.1,0,0,-0.1,64.702983,142.75844)"
               id="g9">
              <defs
                 id="defs6">
                <path
                   id="DejaVuSans-32"
                   d="M 1228,531 H 3431 V 0 H 469 v 531 q 359,372 979,998 621,627 780,809 303,340 423,576 121,236 121,464 0,372 -261,606 -261,235 -680,235 -297,0 -627,-103 -329,-103 -704,-313 v 638 q 381,153 712,231 332,78 607,78 725,0 1156,-363 431,-362 431,-968 0,-288 -108,-546 -107,-257 -392,-607 -78,-91 -497,-524 Q 1991,1309 1228,531 Z"
                   transform="scale(0.015625)" />
                <path
                   id="DejaVuSans-35"
                   d="M 691,4666 H 3169 V 4134 H 1269 V 2991 q 137,47 274,70 138,23 276,23 781,0 1237,-428 457,-428 457,-1159 Q 3513,744 3044,326 2575,-91 1722,-91 1428,-91 1123,-41 819,9 494,109 v 635 q 281,-153 581,-228 300,-75 634,-75 541,0 856,284 316,284 316,772 0,487 -316,771 -315,285 -856,285 -253,0 -505,-56 -251,-56 -513,-175 z"
                   transform="scale(0.015625)" />
              </defs>
              <use
                 xlink:href="#DejaVuSans-32"
                 id="use7" />
              <use
                 xlink:href="#DejaVuSans-2e"
                 transform="translate(63.623047)"
                 id="use8" />
              <use
                 xlink:href="#DejaVuSans-35"
                 transform="translate(95.410156)"
                 id="use9" />
            </g>
          </g>
        </g>
        <g
           id="xtick_3">
          <g
             id="line2d_3">
            <g
               id="g10">
              <use
                 xlink:href="#m60946d14d2"
                 x="110.7"
                 y="128.16"
                 style="stroke:#000000;stroke-width:0.8"
                 id="use10" />
            </g>
          </g>
          <g
             id="text_3">
            <!-- 5.0 -->
            <g
               transform="matrix(0.1,0,0,-0.1,102.74844,142.75844)"
               id="g13">
              <use
                 xlink:href="#DejaVuSans-35"
                 id="use11" />
              <use
                 xlink:href="#DejaVuSans-2e"
                 transform="translate(63.623047)"
                 id="use12" />
              <use
                 xlink:href="#DejaVuSans-30"
                 transform="translate(95.410156)"
                 id="use13" />
            </g>
          </g>
        </g>
        <g
           id="xtick_4">
          <g
             id="line2d_4">
            <g
               id="g14">
              <use
                 xlink:href="#m60946d14d2"
                 x="148.74545"
                 y="128.16"
                 style="stroke:#000000;stroke-width:0.8"
                 id="use14" />
            </g>
          </g>
          <g
             id="text_4">
            <!-- 7.5 -->
            <g
               transform="matrix(0.1,0,0,-0.1,140.79389,142.75844)"
               id="g17">
              <defs
                 id="defs14">
                <path
                   id="DejaVuSans-37"
                   d="M 525,4666 H 3525 V 4397 L 1831,0 H 1172 L 2766,4134 H 525 Z"
                   transform="scale(0.015625)" />
              </defs>
              <use
                 xlink:href="#DejaVuSans-37"
                 id="use15" />
              <use
                 xlink:href="#DejaVuSans-2e"
                 transform="translate(63.623047)"
                 id="use16" />
              <use
                 xlink:href="#DejaVuSans-35"
                 transform="translate(95.410156)"
                 id="use17" />
            </g>
          </g>
        </g>
        <g
           id="xtick_5">
          <g
             id="line2d_5">
            <g
               id="g18">
              <use
                 xlink:href="#m60946d14d2"
                 x="186.79091"
                 y="128.16"
                 style="stroke:#000000;stroke-width:0.8"
                 id="use18" />
            </g>
          </g>
          <g
             id="text_5">
            <!-- 10.0 -->
            <g
               transform="matrix(0.1,0,0,-0.1,175.6581,142.75844)"
               id="g22">
              <defs
                 id="defs18">
                <path
                   id="DejaVuSans-31"
                   d="M 794,531 H 1825 V 4091 L 703,3866 v 575 l 1116,225 h 631 V 531 H 3481 V 0 H 794 Z"
                   transform="scale(0.015625)" />
              </defs>
              <use
                 xlink:href="#DejaVuSans-31"
                 id="use19" />
              <use
                 xlink:href="#DejaVuSans-30"
                 transform="translate(63.623047)"
                 id="use20" />
              <use
                 xlink:href="#DejaVuSans-2e"
                 transform="translate(127.24609)"
                 id="use21" />
              <use
                 xlink:href="#DejaVuSans-30"
                 transform="translate(159.0332)"
                 id="use22" />
            </g>
          </g>
        </g>
        <g
           id="text_6">
          <!-- $t$ (sec) -->
          <g
             transform="matrix(0.1,0,0,-0.1,94.8,156.43656)"
             id="g29">
            <defs
               id="defs22">
              <path
                 id="DejaVuSans-Oblique-74"
                 d="m 2706,3500 -87,-447 H 1472 L 1100,1153 q -19,-106 -28,-178 -9,-72 -9,-112 0,-200 120,-291 120,-91 386,-91 h 581 L 2053,0 H 1503 Q 991,0 739,200 488,400 488,806 q 0,72 9,158 9,86 28,189 L 897,3053 H 409 l 91,447 h 478 l 194,994 h 575 l -191,-994 z"
                 transform="scale(0.015625)" />
              <path
                 id="DejaVuSans-20"
                 transform="scale(0.015625)" />
              <path
                 id="DejaVuSans-28"
                 d="m 1984,4856 q -418,-718 -622,-1422 -203,-703 -203,-1425 0,-721 205,-1429 205,-708 620,-1424 h -500 q -468,735 -701,1444 -233,709 -233,1409 0,697 231,1403 232,707 703,1444 z"
                 transform="scale(0.015625)" />
              <path
                 id="DejaVuSans-73"
                 d="m 2834,3397 v -544 q -243,125 -506,187 -262,63 -544,63 -428,0 -642,-131 -214,-131 -214,-394 0,-200 153,-314 153,-114 616,-217 l 197,-44 q 612,-131 870,-370 258,-239 258,-667 0,-488 -386,-773 Q 2250,-91 1575,-91 1294,-91 989,-36 684,19 347,128 v 594 q 319,-166 628,-249 309,-82 613,-82 406,0 624,139 219,139 219,392 0,234 -158,359 -157,125 -692,241 l -200,47 q -534,112 -772,345 -237,233 -237,639 0,494 350,762 350,269 994,269 318,0 599,-47 282,-46 519,-140 z"
                 transform="scale(0.015625)" />
              <path
                 id="DejaVuSans-65"
                 d="M 3597,1894 V 1613 H 953 q 38,-594 358,-905 320,-311 892,-311 331,0 642,81 311,81 618,244 V 178 Q 3153,47 2828,-22 2503,-91 2169,-91 1331,-91 842,396 353,884 353,1716 q 0,859 464,1363 464,505 1252,505 706,0 1117,-455 411,-454 411,-1235 z m -575,169 q -6,471 -264,752 -258,282 -683,282 -481,0 -770,-272 -289,-272 -333,-766 z"
                 transform="scale(0.015625)" />
              <path
                 id="DejaVuSans-63"
                 d="m 3122,3366 v -538 q -244,135 -489,202 -245,67 -495,67 -560,0 -870,-355 -309,-354 -309,-995 0,-641 309,-996 310,-354 870,-354 250,0 495,67 245,67 489,202 V 134 Q 2881,22 2623,-34 2366,-91 2075,-91 1284,-91 818,406 353,903 353,1747 q 0,856 470,1346 471,491 1290,491 265,0 518,-55 253,-54 491,-163 z"
                 transform="scale(0.015625)" />
              <path
                 id="DejaVuSans-29"
                 d="m 513,4856 h 500 q 468,-737 701,-1444 233,-706 233,-1403 0,-700 -233,-1409 -233,-709 -701,-1444 H 513 q 415,716 620,1424 205,708 205,1429 0,722 -205,1425 -205,704 -620,1422 z"
                 transform="scale(0.015625)" />
            </defs>
            <use
               xlink:href="#DejaVuSans-Oblique-74"
               transform="translate(0,0.125)"
               id="use23" />
            <use
               xlink:href="#DejaVuSans-20"
               transform="translate(39.208984,0.125)"
               id="use24" />
            <use
               xlink:href="#DejaVuSans-28"
               transform="translate(70.996094,0.125)"
               id="use25" />
            <use
               xlink:href="#DejaVuSans-73"
               transform="translate(110.00977,0.125)"
               id="use26" />
            <use
               xlink:href="#DejaVuSans-65"
               transform="translate(162.10937,0.125)"
               id="use27" />
            <use
               xlink:href="#DejaVuSans-63"
               transform="translate(223.63281,0.125)"
               id="use28" />
            <use
               xlink:href="#DejaVuSans-29"
               transform="translate(278.61328,0.125)"
               id="use29" />
          </g>
        </g>
      </g>
      <g
         id="matplotlib.axis_2">
        <g
           id="ytick_1">
          <g
             id="line2d_6">
            <defs
               id="defs29">
              <path
                 id="m5dce0c86b8"
                 d="M 0,0 H -3.5"
                 style="stroke:#000000;stroke-width:0.8" />
            </defs>
            <g
               id="g30">
              <use
                 xlink:href="#m5dce0c86b8"
                 x="27"
                 y="123.12"
                 style="stroke:#000000;stroke-width:0.8"
                 id="use30" />
            </g>
          </g>
          <g
             id="text_7">
            <!-- 0 -->
            <g
               transform="matrix(0.1,0,0,-0.1,13.6375,126.91922)"
               id="g31">
              <use
                 xlink:href="#DejaVuSans-30"
                 id="use31" />
            </g>
          </g>
        </g>
        <g
           id="ytick_2">
          <g
             id="line2d_7">
            <g
               id="g32">
              <use
                 xlink:href="#m5dce0c86b8"
                 x="27"
                 y="97.919998"
                 style="stroke:#000000;stroke-width:0.8"
                 id="use32" />
            </g>
          </g>
          <g
             id="text_8">
            <!-- 25 -->
            <g
               transform="matrix(0.1,0,0,-0.1,7.275,101.71922)"
               id="g34">
              <use
                 xlink:href="#DejaVuSans-32"
                 id="use33" />
              <use
                 xlink:href="#DejaVuSans-35"
                 transform="translate(63.623047)"
                 id="use34" />
            </g>
          </g>
        </g>
        <g
           id="ytick_3">
          <g
             id="line2d_8">
            <g
               id="g35">
              <use
                 xlink:href="#m5dce0c86b8"
                 x="27"
                 y="72.720001"
                 style="stroke:#000000;stroke-width:0.8"
                 id="use35" />
            </g>
          </g>
          <g
             id="text_9">
            <!-- 50 -->
            <g
               transform="matrix(0.1,0,0,-0.1,7.275,76.519219)"
               id="g37">
              <use
                 xlink:href="#DejaVuSans-35"
                 id="use36" />
              <use
                 xlink:href="#DejaVuSans-30"
                 transform="translate(63.623047)"
                 id="use37" />
            </g>
          </g>
        </g>
        <g
           id="ytick_4">
          <g
             id="line2d_9">
            <g
               id="g38">
              <use
                 xlink:href="#m5dce0c86b8"
                 x="27"
                 y="47.52"
                 style="stroke:#000000;stroke-width:0.8"
                 id="use38" />
            </g>
          </g>
          <g
             id="text_10">
            <!-- 75 -->
            <g
               transform="matrix(0.1,0,0,-0.1,7.275,51.319219)"
               id="g40">
              <use
                 xlink:href="#DejaVuSans-37"
                 id="use39" />
              <use
                 xlink:href="#DejaVuSans-35"
                 transform="translate(63.623047)"
                 id="use40" />
            </g>
          </g>
        </g>
        <g
           id="ytick_5">
          <g
             id="line2d_10">
            <g
               id="g41">
              <use
                 xlink:href="#m5dce0c86b8"
                 x="27"
                 y="22.32"
                 style="stroke:#000000;stroke-width:0.8"
                 id="use41" />
            </g>
          </g>
          <g
             id="text_11">
            <!-- 100 -->
            <g
               transform="matrix(0.1,0,0,-0.1,0.9125,26.119219)"
               id="g44">
              <use
                 xlink:href="#DejaVuSans-31"
                 id="use42" />
              <use
                 xlink:href="#DejaVuSans-30"
                 transform="translate(63.623047)"
                 id="use43" />
              <use
                 xlink:href="#DejaVuSans-30"
                 transform="translate(127.24609)"
                 id="use44" />
            </g>
          </g>
        </g>
        <g
           id="text_12">
          <!-- $x$ (m) -->
          <g
             transform="matrix(0,-0.1,-0.1,0,-5.167188,86.07)"
             id="g49">
            <defs
               id="defs44">
              <path
                 id="DejaVuSans-Oblique-78"
                 d="M 3841,3500 2234,1784 3219,0 H 2559 L 1819,1388 531,0 H -166 L 1556,1844 641,3500 h 659 l 672,-1266 1172,1266 z"
                 transform="scale(0.015625)" />
              <path
                 id="DejaVuSans-6d"
                 d="m 3328,2828 q 216,388 516,572 300,184 706,184 547,0 844,-383 297,-382 297,-1088 V 0 h -578 v 2094 q 0,503 -179,746 -178,244 -543,244 -447,0 -707,-297 -259,-296 -259,-809 V 0 h -578 v 2094 q 0,506 -178,748 -178,242 -550,242 -441,0 -701,-298 -259,-298 -259,-808 V 0 H 581 v 3500 h 578 v -544 q 197,322 472,475 275,153 653,153 382,0 649,-194 267,-193 395,-562 z"
                 transform="scale(0.015625)" />
            </defs>
            <use
               xlink:href="#DejaVuSans-Oblique-78"
               transform="translate(0,0.125)"
               id="use45" />
            <use
               xlink:href="#DejaVuSans-20"
               transform="translate(59.179688,0.125)"
               id="use46" />
            <use
               xlink:href="#DejaVuSans-28"
               transform="translate(90.966797,0.125)"
               id="use47" />
            <use
               xlink:href="#DejaVuSans-6d"
               transform="translate(129.98047,0.125)"
               id="use48" />
            <use
               xlink:href="#DejaVuSans-29"
               transform="translate(227.39258,0.125)"
               id="use49" />
          </g>
        </g>
      </g>
      <g
         id="line2d_11">
        <path
           d="m 34.609091,123.12 3.105751,-0.042 3.105752,-0.12595 3.105751,-0.20991 3.105751,-0.29388 3.105752,-0.37784 3.105751,-0.46181 3.105752,-0.54577 3.105751,-0.62974 3.105751,-0.7137 3.105752,-0.79767 3.105751,-0.88163 3.105752,-0.9656 3.105751,-1.04956 3.105751,-1.13353 3.105752,-1.21749 3.105751,-1.30146 3.105752,-1.38543 3.105751,-1.46938 3.105751,-1.55335 3.105752,-1.63732 3.105751,-1.72129 3.10575,-1.80524 3.10575,-1.88922 3.10575,-1.973174 3.10576,-2.057143 3.10575,-2.141108 3.10575,-2.225073 3.10575,-2.309038 3.10575,-2.393003 3.10575,-2.476968 3.10575,-2.560933 3.10575,-2.644897 3.10576,-2.728863 3.10575,-2.812828 3.10575,-2.896793 3.10575,-2.980758 3.10575,-3.064723 3.10575,-3.148689 3.10575,-3.232653 3.10576,-3.316618 3.10575,-3.400583 3.10575,-3.484548 3.10575,-3.568513 3.10575,-3.652478 3.10575,-3.736443 3.10575,-3.820408 3.10576,-3.904374 3.10575,-3.988338 3.10575,-4.072303"
           clip-path="url(#p18787005b7)"
           style="fill:none;stroke:#92c6ff;stroke-width:1.5;stroke-linecap:square"
           id="path49" />
      </g>
      <g
         id="patch_3">
        <path
           d="M 27,128.16 V 17.28"
           style="fill:none;stroke:#000000;stroke-width:0.8;stroke-linecap:square;stroke-linejoin:miter"
           id="path50" />
      </g>
      <g
         id="patch_4">
        <path
           d="M 194.4,128.16 V 17.28"
           style="fill:none;stroke:#000000;stroke-width:0.8;stroke-linecap:square;stroke-linejoin:miter"
           id="path51" />
      </g>
      <g
         id="patch_5">
        <path
           d="M 27,128.16 H 194.4"
           style="fill:none;stroke:#000000;stroke-width:0.8;stroke-linecap:square;stroke-linejoin:miter"
           id="path52" />
      </g>
      <g
         id="patch_6">
        <path
           d="M 27,17.28 H 194.4"
           style="fill:none;stroke:#000000;stroke-width:0.8;stroke-linecap:square;stroke-linejoin:miter"
           id="path53" />
      </g>
    </g>
  </g>
  <defs
     id="defs53">
    <clipPath
       id="p18787005b7">
      <rect
         x="27"
         y="17.280001"
         width="167.39999"
         height="110.88"
         id="rect53" />
    </clipPath>
  </defs>
  <path
     style="fill:none;stroke:#000000;stroke-width:1.41732;stroke-dasharray:none;stroke-dashoffset:0;stroke-opacity:1;marker-start:url(#marker55);marker-end:url(#Stop)"
     d="M 95.476115,123.64865 H 171.82767"
     id="path54" />
  <path
     style="fill:none;stroke:#000000;stroke-width:1.41732;stroke-dasharray:none;stroke-dashoffset:0;stroke-opacity:1;marker-start:url(#marker55);marker-end:url(#Stop)"
     d="m 171.87269,74.536292 -0.045,49.112358"
     id="path56"
     sodipodi:nodetypes="cc" />
  <text
     xml:space="preserve"
     style="font-size:12px;text-align:start;writing-mode:lr-tb;direction:ltr;text-anchor:start;fill:none;stroke:#000000;stroke-width:1.41732;stroke-dasharray:none;stroke-dashoffset:0;stroke-opacity:1"
     x="178.28644"
     y="95.268425"
     id="text56"><tspan
       sodipodi:role="line"
       id="tspan56"
       style="fill:#000000;fill-opacity:1;stroke:none;stroke-width:1.41732"
       x="178.28644"
       y="95.268425">$\Delta d$</tspan></text>
  <text
     xml:space="preserve"
     style="font-size:12px;text-align:start;writing-mode:lr-tb;direction:ltr;text-anchor:start;fill:none;stroke:#000000;stroke-width:1.41732;stroke-dasharray:none;stroke-dashoffset:0;stroke-opacity:1"
     x="126.24731"
     y="117.4173"
     id="text57"><tspan
       sodipodi:role="line"
       id="tspan57"
       style="fill:#000000;fill-opacity:1;stroke:none;stroke-width:1.41732"
       x="126.24731"
       y="117.4173">$\Delta t$</tspan></text>
  <text
     xml:space="preserve"
     style="font-size:12px;text-align:start;writing-mode:lr-tb;direction:ltr;text-anchor:start;fill:#000000;fill-opacity:1;stroke:none;stroke-width:1.41732;stroke-dasharray:none;stroke-dashoffset:0;stroke-opacity:1"
     x="117.98217"
     y="168.69691"
     id="text58"><tspan
       sodipodi:role="line"
       id="tspan58"
       style="stroke-width:1.41732"
       x="117.98217"
       y="168.69691">$t$ (sec)</tspan></text>
  <text
     xml:space="preserve"
     style="font-size:12px;text-align:start;writing-mode:lr-tb;direction:ltr;text-anchor:start;fill:#000000;fill-opacity:1;stroke:none;stroke-width:1.41732;stroke-dasharray:none;stroke-dashoffset:0;stroke-opacity:1"
     x="-101.02025"
     y="18.385431"
     id="text59"
     transform="rotate(-90)"><tspan
       sodipodi:role="line"
       id="tspan59"
       style="stroke-width:1.41732"
       x="-101.02025"
       y="18.385431">$x$ (m)</tspan></text>
</svg>
